<?xml version="1.0" standalone="no"?>
<!DOCTYPE svg PUBLIC "-//W3C//DTD SVG 20010904//EN"
 "http://www.w3.org/TR/2001/REC-SVG-20010904/DTD/svg10.dtd">
<svg version="1.0" xmlns="http://www.w3.org/2000/svg"
 width="512.000000pt" height="512.000000pt" viewBox="0 0 512.000000 512.000000"
 preserveAspectRatio="xMidYMid meet">

<g transform="translate(0.000000,512.000000) scale(0.100000,-0.100000)"
fill="#000000" stroke="none">
<path d="M2936 4210 c-202 -72 -354 -272 -425 -562 -27 -105 -40 -279 -29
-372 28 -229 197 -498 499 -792 l114 -110 122 4 c103 4 132 1 191 -17 166 -50
310 -200 388 -405 16 -39 29 -73 31 -75 5 -7 202 127 358 244 548 411 863 799
922 1135 32 183 -26 478 -131 663 -82 146 -191 242 -326 287 -57 19 -81 22
-185 18 -244 -9 -374 -84 -577 -330 -44 -54 -86 -98 -92 -98 -7 0 -45 40 -85
89 -142 176 -253 265 -391 311 -98 33 -303 39 -384 10z m1692 -267 c64 -30
115 -95 133 -166 17 -73 13 -77 -85 -77 l-84 0 -7 30 c-7 32 -38 60 -67 60
-16 0 -18 10 -18 88 0 49 3 91 6 95 10 10 66 -3 122 -30z m135 -556 c-8 -243
-226 -580 -561 -870 -95 -82 -256 -207 -266 -207 -3 0 -28 33 -55 73 l-49 73
111 84 c62 46 182 154 267 240 229 229 331 390 367 580 l17 91 86 -3 85 -3 -2
-58z"/>
</g>
</svg>
